<svg xmlns="http://www.w3.org/2000/svg" width="38" height="24" fill="none" viewBox="0 0 38 24"><path fill="#100e13" d="M0 0h38v24H0z"/><path fill="#fff" d="m19.5 12 .48-.488a3.95 3.95 0 0 1 2.81-1.179h3.928c1.811 0 3.282 1.492 3.282 3.33C30 15.508 28.53 17 26.714 17H15.392v-1.667h11.322c.908 0 1.643-.745 1.643-1.666S27.622 12 26.714 12zm-7.214 0a1.655 1.655 0 0 1-1.643-1.667c0-.92.736-1.666 1.643-1.666h11.322V7H12.286C10.471 7 9 8.492 9 10.333s1.47 3.334 3.286 3.334h3.923a3.96 3.96 0 0 0 2.81-1.18L19.5 12z"/></svg>
